# xmcd CD database file
#
# Track frame offsets:
#	150
#	16135
#	28961
#	40511
#	57581
#	69972
#	86377
#	104015
#	115485
#	127350
#	142018
#	154425
#	170810
#	183977
#	194255
#	209773
#	219596
#	234661
#	249072
#	266725
#	278086
#	300431
#	313636
#	327342
#
# Disc length: 4512 seconds
#
# Revision: 0
# Processed by: cddbd v1.5.2PL0 Copyright (c) Steve Scherf et al.
# Submitted via: ACXtractor (MTCDDB.DLL V2003.07.15)
#
DISCID=6e119e18
DTITLE=Keith Jamieson - Troy's Memory
DYEAR=2001
DGENRE=Country
TTITLE0=Solar Powered Ringer
TTITLE1=Howard
TTITLE2=Bush Ballad Rock
TTITLE3=One Tree Plain
TTITLE4=Old Time Ringer
TTITLE5=Alex Smith PIck up Man
TTITLE6=I Leave You a Song
TTITLE7=The Roma Oil Rig Man
TTITLE8=He's a Bushman
TTITLE9=Len Cant The Drover
TTITLE10=Overnighter
TTITLE11=Troy's Memory
TTITLE12=Good Morning Australia
TTITLE13=Dance the Claypan Boogie Style
TTITLE14=The Wave Hill Spur
TTITLE15=The Bushman's BBQ
TTITLE16=G'day Mate and Welcome to Australia
TTITLE17=Plastic Bushman
TTITLE18=Bush Ballads Forever
TTITLE19=I'm Just What I Am
TTITLE20=The Bush Ballad Guitar
TTITLE21=Trumby's Mate
TTITLE22=The Musical Junkie
TTITLE23=Moonlight and Mulga
EXTD=ID3G:   2 YEAR: 2001
EXTT0=
EXTT1=
EXTT2=
EXTT3=
EXTT4=
EXTT5=
EXTT6=
EXTT7=
EXTT8=
EXTT9=
EXTT10=
EXTT11=
EXTT12=
EXTT13=
EXTT14=
EXTT15=
EXTT16=
EXTT17=
EXTT18=
EXTT19=
EXTT20=
EXTT21=
EXTT22=
EXTT23=
PLAYORDER=
